<?xml version="1.0" encoding="utf-8"?>
<!-- Generator: Adobe Illustrator 21.0.2, SVG Export Plug-In . SVG Version: 6.00 Build 0)  -->
<svg version="1.1" id="Layer_1" xmlns="http://www.w3.org/2000/svg" xmlns:xlink="http://www.w3.org/1999/xlink" x="0px" y="0px"
	 viewBox="0 0 512 512" style="enable-background:new 0 0 512 512;" xml:space="preserve">
<style type="text/css">
	.st0{fill:#DDDDDD;}
</style>
<path class="st0" d="M256,70.7c-102.6,0-185.9,83.2-185.9,185.9c0,82.1,53.3,151.8,127.1,176.4c9.3,1.7,12.3-4,12.3-8.9v-34.7
	c-51.7,11.3-62.5-21.9-62.5-21.9c-8.4-21.5-20.6-27.2-20.6-27.2c-16.9-11.5,1.3-11.3,1.3-11.3c18.7,1.3,28.5,19.2,28.5,19.2
	c16.6,28.4,43.5,20.2,54.1,15.4c1.7-12,6.5-20.2,11.8-24.9c-41.3-4.7-84.7-20.6-84.7-91.9c0-20.3,7.3-36.9,19.2-49.9
	c-1.9-4.7-8.3-23.6,1.8-49.2c0,0,15.6-5,51.1,19.1c14.8-4.1,30.7-6.2,46.5-6.3c15.8,0.1,31.7,2.1,46.6,6.3
	c35.5-24,51.1-19.1,51.1-19.1c10.1,25.6,3.8,44.5,1.8,49.2c11.9,13,19.1,29.6,19.1,49.9c0,71.4-43.5,87.1-84.9,91.7
	c6.7,5.8,12.8,17.1,12.8,34.4c0,24.9,0,44.9,0,51c0,4.9,3,10.7,12.4,8.9c73.8-24.6,127-94.3,127-176.4
	C441.9,153.9,358.6,70.7,256,70.7z"/>
</svg>
