<?xml version="1.0" encoding="utf-8"?>
<!-- Generator: Adobe Illustrator 21.0.2, SVG Export Plug-In . SVG Version: 6.00 Build 0)  -->
<svg version="1.2" baseProfile="tiny" xmlns="http://www.w3.org/2000/svg" xmlns:xlink="http://www.w3.org/1999/xlink" x="0px"
	 y="0px" viewBox="0 0 500 500" overflow="scroll" xml:space="preserve">
<g id="Layer_2">
	<rect width="500" height="500"/>
</g>
<g id="Layer_1">
	<g>
		<path d="M-89.4,458.7C-47,274.2-4.6,89.7,37.7-94.8c0.3-1.4,0.7-1.6,2.1-1.3c184.5,42.4,369,84.8,553.5,127.2
			c-42.3,184.3-84.7,368.5-127,552.8c-0.5,2.4-0.5,2.4-2.9,1.8C279.1,543.4,94.8,501-89.4,458.7z M297.9,398.1c0,0.2,0,0.4,0,0.7
			c0.1-0.3,0.2-0.5,0.3-0.8c-0.1-0.3-0.1-0.6-0.2-0.9c-9.3-30.5-18.7-61-28.1-91.4c-0.1-0.4-0.3-0.8-0.6-1.3
			c-3.5,4.5-6.8,8.9-10.3,13.2c-1.1,1.4-1.3,2.4-0.4,4c10.2,19.7,20.2,39.4,30.3,59.1C291.8,386.5,294.8,392.3,297.9,398.1z
			 M98.9,291.1c0.3-0.1,0.6-0.1,0.9-0.2c30.5-9.3,61-18.7,91.4-28.1c0.4-0.1,0.8-0.3,1.3-0.6c-4.5-3.5-8.9-6.8-13.2-10.3
			c-1.4-1.1-2.4-1.3-4-0.4c-19.7,10.2-39.4,20.2-59.1,30.3c-5.8,3-11.6,6-17.4,9.1c-0.2,0-0.4,0-0.7,0
			C98.3,290.9,98.6,291,98.9,291.1z M405,198.7c-0.3,0.1-0.6,0.1-0.9,0.2c-30.5,9.3-61,18.7-91.4,28c-0.4,0.1-0.8,0.3-1.3,0.6
			c4.5,3.5,8.9,6.8,13.2,10.3c1.4,1.1,2.4,1.3,4,0.4c19.7-10.2,39.5-20.3,59.3-30.4c5.8-3,11.5-6,17.2-9c0.1-0.1,0.2-0.1,0.3-0.2
			C405.3,198.7,405.2,198.7,405,198.7z M206,91.7c-0.2-0.1-0.4-0.3-0.6-0.4c0.1,0.2,0.3,0.4,0.4,0.6c0.1,0.3,0.1,0.6,0.2,0.9
			c9.3,30.5,18.7,60.9,28,91.4c0.1,0.4,0.3,0.8,0.6,1.2c3.5-4.5,6.9-9,10.4-13.3c1-1.3,1.1-2.2,0.4-3.7
			c-10.2-19.8-20.3-39.6-30.4-59.5C212,103.1,209,97.4,206,91.7z M253.7,242.9c0.8-0.2,1.3-0.2,1.7-0.3
			c17.6-5.4,35.1-10.8,52.7-16.2c0.7-0.2,1.6-1.1,1.8-1.8c1.2-3.3,2.2-6.6,3.2-10c1.5-4.6,2.9-9.3,4.4-13.9c2-6.2,4.1-12.4,6.1-18.7
			c2-6,3.9-12.1,5.8-18.2c2.1-6.5,4.2-12.9,6.3-19.4c1.5-4.5,2.9-9,4.4-13.5c2-6.2,4.1-12.4,6.1-18.7c2-6,3.9-12.1,5.8-18.2
			c2.4-7.5,4.9-15,7.4-22.6c2-6,3.8-12.1,5.8-18.2c2.4-7.5,4.9-15,7.4-22.6c2.1-6.6,4.3-13.1,6.4-19.7c0.8-2.3,1.4-4.7,2.2-7.1
			c-0.2-0.1-0.4-0.2-0.6-0.3C338.3,83.4,296.1,162.9,253.7,242.9z M8.9,115c0,0.1-0.1,0.1-0.1,0.2c80.3,42.6,160.5,85.2,240.9,127.8
			c0-0.4,0-0.6,0-0.7c-5.5-17.9-11-35.8-16.5-53.8c-0.2-0.5-0.8-1.1-1.3-1.3c-11.9-3.9-23.8-7.8-35.8-11.7
			c-10.2-3.3-20.3-6.6-30.5-9.8c-12.9-4.2-25.9-8.4-38.8-12.6c-11.6-3.7-23.2-7.5-34.7-11.2c-14.3-4.6-28.6-9.3-42.9-13.9
			C35.8,123.6,22.3,119.3,8.9,115z M253.9,246.7c0.2,0.6,0.2,0.9,0.3,1.1c5.4,17.7,10.9,35.5,16.4,53.2c0.2,0.6,0.9,1.3,1.5,1.5
			c11.1,3.7,22.2,7.2,33.3,10.8c11.6,3.8,23.3,7.6,34.9,11.3c11.6,3.7,23.2,7.5,34.7,11.2c12.9,4.2,25.9,8.4,38.8,12.6
			c12.9,4.2,25.9,8.3,38.8,12.5c14.1,4.5,28.1,9.1,42.2,13.7c0-0.1,0.1-0.1,0.1-0.2C414.7,332,334.5,289.5,253.9,246.7z M250.1,247
			c-0.6,0.1-0.9,0.2-1.1,0.3c-17.7,5.4-35.5,10.9-53.2,16.3c-0.6,0.2-1.3,0.9-1.5,1.6c-4.5,13.6-8.9,27.3-13.3,41
			c-5.1,15.7-10.2,31.3-15.3,47c-4.7,14.4-9.3,28.9-14,43.3c-5.1,15.7-10.2,31.3-15.3,47c-4.8,14.8-9.6,29.7-14.4,44.5
			c0.1,0,0.1,0.1,0.2,0.1C164.8,407.7,207.4,327.5,250.1,247z M204.7,176.8c0.1-0.1,0.1-0.2,0.2-0.3c-8.9-7.6-17.8-15.1-26.6-22.7
			c-0.1,0.1-0.2,0.2-0.3,0.4c4.9,5.9,9.8,11.9,14.7,17.8c0.4,0.5,0.9,1.2,1.5,1.4C197.6,174.5,201.2,175.6,204.7,176.8z
			 M160.9,318.5c0,0.1,0.1,0.2,0.1,0.2c0.4-0.2,0.8-0.4,1.1-0.7c5.7-4.7,11.5-9.4,17.2-14.2c0.6-0.5,1-1.2,1.3-2
			c1-2.7,1.8-5.4,2.7-8.2c0.2-0.5,0.3-1.1,0.5-2.1C176,300.8,168.5,309.6,160.9,318.5z M342.8,171.4c-0.1-0.1-0.2-0.2-0.3-0.3
			c-0.5,0.4-1,0.7-1.5,1.1c-4.4,3.7-8.8,7.4-13.3,10.9c-2.8,2.2-5,4.5-5.7,8.2c-0.4,2.2-1.3,4.3-1.9,6.4c0.1,0,0.2,0.1,0.3,0.1
			C327.9,189,335.3,180.2,342.8,171.4z M325.4,335.7c0.2-0.1,0.4-0.3,0.5-0.4c-0.2-0.2-0.4-0.3-0.6-0.5c-4.8-5.8-9.6-11.6-14.4-17.5
			c-0.3-0.4-0.7-0.8-1.1-0.9c-3.5-1.2-7-2.3-10.5-3.4c-0.1,0.1-0.1,0.2-0.2,0.3C307.8,320.8,316.6,328.3,325.4,335.7z M346,254.6
			c1.8,1.4,3.2,2.5,4.6,3.5c0.4,0.3,1,0.5,1.5,0.4c5.5-0.4,11-0.9,16.5-1.3c0.6-0.1,1.3-0.2,1.9-0.4c0,0.1,0,0.1,0,0.2
			C362.6,256.2,354.6,255.4,346,254.6z M261.7,150.2c0.1,0,0.2,0.1,0.3,0.1c0.7-0.9,1.3-1.8,2.1-2.6c1.3-1.3,1.6-2.7,1.4-4.5
			c-0.6-5.5-0.9-11-1.4-16.5c0,0-0.1,0-0.1,0C263.2,134.5,262.4,142.3,261.7,150.2z M157.8,235.2c-1.4-1.1-2.3-1.7-3.2-2.5
			c-1.3-1.2-2.6-1.5-4.4-1.3c-5.5,0.6-11.1,0.9-16.6,1.4c0,0,0,0.1,0,0.1C141.5,233.6,149.4,234.4,157.8,235.2z M239.8,363.3
			c0,0,0.1,0,0.1,0c0.8-7.9,1.5-15.8,2.3-23.7c-1.3,1.2-2.3,2.4-3.2,3.6c-0.4,0.6-0.7,1.3-0.6,2
			C238.8,351.2,239.3,357.2,239.8,363.3z"/>
		<path fill="#FDFDFD" d="M-90.4,460.7c184.3,42.3,368.5,84.7,552.8,127c2.4,0.5,2.4,0.5,2.9-1.8c42.3-184.3,84.7-368.5,127-552.8
			c0.1,0.1,0.3,0.2,0.3,0.3c-0.1,0.5-0.2,1-0.3,1.5C550,218.9,507.7,403,465.4,587.1c-0.3,1.4-0.7,1.6-2.1,1.3
			C279.3,546,95.2,503.7-88.9,461.4C-89.4,461.3-89.9,460.9-90.4,460.7z"/>
		<path fill="#F0080D" d="M252.7,244.9c42.4-80,84.6-159.5,126.8-239.1c0.2,0.1,0.4,0.2,0.6,0.3c-0.7,2.4-1.4,4.7-2.2,7.1
			c-2.1,6.6-4.3,13.2-6.4,19.7c-2.5,7.5-5,15-7.4,22.6c-2,6-3.8,12.1-5.8,18.2c-2.4,7.5-4.9,15-7.4,22.6c-2,6-3.9,12.1-5.8,18.2
			c-2,6.2-4.1,12.4-6.1,18.7c-1.5,4.5-2.9,9-4.4,13.5c-2.1,6.5-4.2,12.9-6.3,19.4c-1.9,6-3.9,12.1-5.8,18.2
			c-2,6.2-4.1,12.4-6.1,18.7c-1.5,4.6-3,9.3-4.4,13.9c-1.1,3.3-2.1,6.7-3.2,10c-0.3,0.7-1.1,1.6-1.8,1.8
			c-17.5,5.5-35.1,10.8-52.7,16.2C254,244.7,253.5,244.7,252.7,244.9z"/>
		<path fill="#FDFDFD" d="M7.9,117c13.4,4.3,26.8,8.6,40.2,13c14.3,4.6,28.6,9.3,42.9,13.9c11.6,3.7,23.2,7.5,34.7,11.2
			c12.9,4.2,25.9,8.4,38.8,12.6c10.2,3.3,20.3,6.6,30.5,9.8c11.9,3.9,23.9,7.7,35.8,11.7c0.5,0.2,1.2,0.7,1.3,1.3
			c5.5,17.9,11,35.8,16.5,53.8c0,0.2,0,0.3,0,0.7C168.4,202.3,88.1,159.7,7.8,117.2C7.9,117.1,7.9,117,7.9,117z"/>
		<path fill="#FDFDFD" d="M252.9,248.7c80.6,42.7,160.8,85.3,241,127.8c0,0.1-0.1,0.1-0.1,0.2c-14.1-4.6-28.1-9.1-42.2-13.7
			c-12.9-4.2-25.9-8.3-38.8-12.5c-12.9-4.2-25.9-8.4-38.8-12.6c-11.6-3.7-23.2-7.5-34.7-11.2c-11.6-3.8-23.3-7.6-34.9-11.3
			c-11.1-3.6-22.2-7.2-33.3-10.8c-0.6-0.2-1.3-0.9-1.5-1.5c-5.5-17.7-10.9-35.5-16.4-53.2C253.2,249.6,253.1,249.4,252.9,248.7z"/>
		<path fill="#FDFDFD" d="M249.1,249c-42.7,80.5-85.3,160.8-127.9,241c-0.1,0-0.1-0.1-0.2-0.1c4.8-14.8,9.6-29.7,14.4-44.5
			c5.1-15.7,10.2-31.3,15.3-47c4.7-14.4,9.3-28.9,14-43.3c5.1-15.7,10.2-31.3,15.3-47c4.4-13.7,8.8-27.3,13.3-41
			c0.2-0.6,0.9-1.4,1.5-1.6c17.7-5.5,35.5-10.9,53.2-16.3C248.2,249.1,248.5,249.1,249.1,249z"/>
		<path fill="#FDFDFD" d="M205,93.7c3,5.7,6,11.5,9,17.2c10.1,19.8,20.3,39.7,30.4,59.5c0.8,1.5,0.7,2.4-0.4,3.7
			c-3.5,4.3-6.9,8.8-10.4,13.3c-0.2-0.5-0.4-0.9-0.6-1.2c-9.4-30.5-18.7-60.9-28-91.4c-0.1-0.3-0.1-0.6-0.2-0.9
			C204.9,93.8,204.9,93.7,205,93.7z"/>
		<path fill="#FDFDFD" d="M404.2,201c-5.7,3-11.5,6-17.2,9c-19.8,10.1-39.6,20.2-59.3,30.4c-1.7,0.9-2.6,0.7-4-0.4
			c-4.3-3.5-8.7-6.8-13.2-10.3c0.5-0.2,0.9-0.4,1.3-0.6c30.5-9.4,61-18.7,91.4-28c0.3-0.1,0.6-0.2,0.9-0.2
			C404.1,200.8,404.1,200.9,404.2,201z"/>
		<path fill="#FDFDFD" d="M97.7,292.8c5.8-3,11.6-6.1,17.4-9.1c19.7-10.1,39.5-20.1,59.1-30.3c1.7-0.9,2.6-0.7,4,0.4
			c4.3,3.5,8.7,6.8,13.2,10.3c-0.5,0.2-0.9,0.4-1.3,0.6c-30.5,9.4-61,18.7-91.4,28.1c-0.3,0.1-0.6,0.2-0.9,0.2
			C97.8,293,97.8,292.9,97.7,292.8z"/>
		<path fill="#FDFDFD" d="M296.9,400.1c-3-5.8-6.1-11.6-9.1-17.4c-10.1-19.7-20.1-39.5-30.3-59.1c-0.9-1.7-0.7-2.6,0.4-4
			c3.5-4.3,6.8-8.7,10.3-13.2c0.2,0.5,0.4,0.9,0.6,1.3c9.4,30.5,18.7,61,28.1,91.4c0.1,0.3,0.2,0.6,0.2,0.9
			C297,400,296.9,400.1,296.9,400.1z"/>
		<path fill="#FDFDFD" d="M204.8,93.9c-0.1-0.2-0.3-0.4-0.4-0.6c0.2,0.1,0.4,0.3,0.6,0.4C204.9,93.7,204.9,93.8,204.8,93.9z"/>
		<path fill="#FDFDFD" d="M97.9,293.1c-0.3-0.1-0.5-0.2-0.8-0.3c0.2,0,0.4,0,0.7,0C97.8,292.9,97.8,293,97.9,293.1z"/>
		<path fill="#FDFDFD" d="M297.1,400c-0.1,0.3-0.2,0.5-0.3,0.8c0-0.2,0-0.4,0-0.7C296.9,400.1,297,400,297.1,400z"/>
		<path fill="#FDFDFD" d="M404,200.7c0.2,0,0.3,0,0.5,0c-0.1,0.1-0.2,0.1-0.3,0.2C404.1,200.9,404.1,200.8,404,200.7z"/>
	</g>
</g>
</svg>
